<svg width="198" height="63" viewBox="0 0 198 63" fill="none" xmlns="http://www.w3.org/2000/svg">
<path d="M0.480469 11.3076V50.7945C0.480469 57.0253 4.97034 62.0764 10.5089 62.0764H28.6854V0.0256348H10.5089C4.97034 0.0256348 0.480469 5.07674 0.480469 11.3076Z" fill="white"/>
<rect width="140.564" height="61.7688" transform="translate(28.6851 0.166504)" fill="white"/>
<path d="M46.0005 36.7541C45.0641 36.7541 44.2123 36.5454 43.4451 36.128C42.678 35.6992 42.0687 35.0674 41.6175 34.2326C41.1662 33.3864 40.9405 32.3429 40.9405 31.1018C40.9405 29.8721 41.1662 28.8285 41.6175 27.9711C42.0687 27.1024 42.678 26.4424 43.4451 25.9911C44.2236 25.5398 45.0867 25.3142 46.0343 25.3142C46.779 25.3142 47.4164 25.4609 47.9466 25.7542C48.4769 26.0362 48.9169 26.3578 49.2666 26.7188L47.8959 28.2588C47.659 28.0219 47.3995 27.8301 47.1174 27.6834C46.8354 27.5367 46.4743 27.4634 46.0343 27.4634C45.5605 27.4634 45.1318 27.6101 44.7482 27.9034C44.3646 28.1855 44.06 28.5916 43.8344 29.1219C43.62 29.6521 43.5128 30.2839 43.5128 31.0172C43.5128 31.7731 43.6087 32.4218 43.8005 32.9634C43.9923 33.4936 44.2856 33.8998 44.6805 34.1818C45.0754 34.4639 45.5605 34.6049 46.1359 34.6049C46.3502 34.6049 46.5533 34.5767 46.7451 34.5203C46.9482 34.4639 47.1061 34.3792 47.219 34.2664V32.3711H45.6113V30.3403H49.4528V35.4172C49.0805 35.7669 48.5841 36.0772 47.9636 36.348C47.3543 36.6187 46.7 36.7541 46.0005 36.7541ZM52.4923 36.551V25.5173H59.803V27.6157H54.9969V29.8326H59.0753V31.9141H54.9969V34.4526H59.9722V36.551H52.4923ZM65.4994 36.551V27.6157H62.1995V25.5173H71.304V27.6157H68.004V36.551H65.4994ZM88.1968 36.7541C87.4522 36.7541 86.7132 36.6187 85.9799 36.348C85.2578 36.0772 84.5979 35.6823 83.9999 35.1633L85.4384 33.4541C85.8558 33.7926 86.3127 34.069 86.8091 34.2834C87.3168 34.4977 87.8358 34.6049 88.366 34.6049C88.8963 34.6049 89.2855 34.5146 89.5337 34.3341C89.7932 34.1536 89.9229 33.9223 89.9229 33.6403C89.9229 33.3808 89.8552 33.1777 89.7199 33.0311C89.5845 32.8731 89.387 32.7377 89.1276 32.6249C88.8681 32.5008 88.5635 32.3654 88.2137 32.2188L86.7922 31.6095C86.386 31.4516 86.0025 31.2429 85.6414 30.9834C85.2804 30.7126 84.9871 30.3854 84.7614 30.0018C84.5471 29.607 84.4399 29.1388 84.4399 28.5972C84.4399 27.988 84.6091 27.4408 84.9476 26.9557C85.2973 26.4593 85.7712 26.0644 86.3691 25.7711C86.9783 25.4665 87.6835 25.3142 88.4845 25.3142C89.1501 25.3142 89.8045 25.4383 90.4476 25.6865C91.0906 25.9347 91.6604 26.2957 92.1568 26.7696L90.8875 28.3434C90.504 28.0613 90.1204 27.847 89.7368 27.7003C89.3532 27.5424 88.8906 27.4634 88.3491 27.4634C87.943 27.4634 87.6101 27.548 87.3507 27.7172C87.0912 27.8865 86.9614 28.1347 86.9614 28.4619C86.9614 28.6762 87.0404 28.8567 87.1983 29.0034C87.3563 29.1501 87.5707 29.2798 87.8414 29.3926C88.1122 29.5054 88.4224 29.6295 88.7722 29.7649L90.1091 30.3403C90.6055 30.5208 91.0286 30.7465 91.3783 31.0172C91.7281 31.2767 91.9988 31.5982 92.1906 31.9818C92.3824 32.3654 92.4783 32.8167 92.4783 33.3357C92.4783 33.9449 92.3091 34.509 91.9706 35.028C91.6434 35.5469 91.1583 35.9644 90.5152 36.2803C89.8835 36.5962 89.1106 36.7541 88.1968 36.7541ZM97.7178 36.551V27.6157H94.4178V25.5173H103.522V27.6157H100.222V36.551H97.7178ZM104.785 36.551L108.22 25.5173H111.199L114.634 36.551H111.994L110.573 30.9665C110.437 30.4136 110.291 29.827 110.133 29.2065C109.975 28.586 109.828 27.988 109.693 27.4126H109.625C109.49 27.988 109.349 28.586 109.202 29.2065C109.055 29.827 108.909 30.4136 108.762 30.9665L107.323 36.551H104.785ZM107.053 33.928V31.9818H112.333V33.928H107.053ZM116.557 36.551V25.5173H120.466C121.244 25.5173 121.955 25.6244 122.598 25.8388C123.241 26.0419 123.755 26.3973 124.138 26.9049C124.533 27.4014 124.731 28.0839 124.731 28.9526C124.731 29.7988 124.533 30.487 124.138 31.0172C123.755 31.5475 123.241 31.9423 122.598 32.2018C121.955 32.45 121.244 32.5741 120.466 32.5741H119.044V36.551H116.557ZM119.044 30.5941H120.263C120.917 30.5941 121.414 30.4588 121.752 30.188C122.102 29.906 122.277 29.4942 122.277 28.9526C122.277 28.4111 122.102 28.0331 121.752 27.8188C121.414 27.6044 120.917 27.4973 120.263 27.4973H119.044V30.5941ZM120.009 31.9311L121.735 30.3234L125.255 36.551H122.463L120.009 31.9311ZM129.936 36.551V27.6157H126.636V25.5173H135.741V27.6157H132.441V36.551H129.936ZM138.408 36.551V25.5173H145.719V27.6157H140.913V29.8326H144.991V31.9141H140.913V34.4526H145.888V36.551H138.408ZM148.775 36.551V25.5173H151.821C152.893 25.5173 153.824 25.7091 154.614 26.0926C155.415 26.4762 156.035 27.0742 156.475 27.8865C156.915 28.6875 157.135 29.7198 157.135 30.9834C157.135 32.247 156.915 33.2905 156.475 34.1141C156.046 34.9377 155.443 35.5526 154.664 35.9587C153.886 36.3536 152.989 36.551 151.974 36.551H148.775ZM151.28 34.5372H151.686C152.273 34.5372 152.78 34.4244 153.209 34.1987C153.638 33.9731 153.97 33.6008 154.207 33.0818C154.456 32.5629 154.58 31.8634 154.58 30.9834C154.58 30.1034 154.456 29.4152 154.207 28.9188C153.97 28.4111 153.638 28.0557 153.209 27.8526C152.78 27.6383 152.273 27.5311 151.686 27.5311H151.28V34.5372Z" fill="#0E0C15"/>
<path d="M193.518 14.7898L179.384 2.64227C177.417 0.951582 174.937 0.0256348 172.376 0.0256348H169.249V62.0764H176.34H186.51C192.554 62.0764 197.454 57.0253 197.454 50.7945V23.4551C197.454 20.1078 196.012 16.9333 193.518 14.7898Z" fill="white"/>
</svg>
