<svg width="21" height="20" viewBox="0 0 21 20" fill="none" xmlns="http://www.w3.org/2000/svg">
<g clip-path="url(#clip0_33_1105)">
<path d="M6.44873 8.056C6.44873 7.46655 6.68289 6.90125 7.09969 6.48445C7.51649 6.06765 8.08179 5.8335 8.67123 5.8335H15.8929C16.1848 5.8335 16.4738 5.89098 16.7434 6.00267C17.0131 6.11437 17.2581 6.27807 17.4644 6.48445C17.6708 6.69083 17.8345 6.93584 17.9462 7.20548C18.0579 7.47513 18.1154 7.76413 18.1154 8.056V15.2777C18.1154 15.5695 18.0579 15.8585 17.9462 16.1282C17.8345 16.3978 17.6708 16.6428 17.4644 16.8492C17.2581 17.0556 17.0131 17.2193 16.7434 17.331C16.4738 17.4427 16.1848 17.5002 15.8929 17.5002H8.67123C8.37937 17.5002 8.09036 17.4427 7.82072 17.331C7.55107 17.2193 7.30606 17.0556 7.09969 16.8492C6.89331 16.6428 6.7296 16.3978 6.61791 16.1282C6.50622 15.8585 6.44873 15.5695 6.44873 15.2777V8.056Z" stroke="#222425" stroke-width="2" stroke-linecap="round" stroke-linejoin="round"/>
<path d="M3.95869 13.9475C3.70314 13.8018 3.49058 13.5912 3.3425 13.3371C3.19442 13.0829 3.11607 12.7942 3.11536 12.5V4.16667C3.11536 3.25 3.86536 2.5 4.78202 2.5H13.1154C13.7404 2.5 14.0804 2.82083 14.3654 3.33333" stroke="#222425" stroke-width="2" stroke-linecap="round" stroke-linejoin="round"/>
</g>
<defs>
<clipPath id="clip0_33_1105">
<rect width="20" height="20" fill="white" transform="translate(0.615356)"/>
</clipPath>
</defs>
</svg>
