<svg width="18" height="18" viewBox="0 0 18 18" fill="none" xmlns="http://www.w3.org/2000/svg">
<g id="discord" clip-path="url(#clip0_76_1277)">
<g id="Group">
<path id="Vector" d="M7.24844 7.39957C7.00961 7.41922 6.7869 7.52797 6.62455 7.70423C6.4622 7.88049 6.37207 8.11136 6.37207 8.351C6.37207 8.59064 6.4622 8.82151 6.62455 8.99777C6.7869 9.17403 7.00961 9.28278 7.24844 9.30243C7.36863 9.29803 7.48675 9.26986 7.596 9.21956C7.70524 9.16926 7.80344 9.09781 7.88492 9.00936C7.96641 8.9209 8.02957 8.81718 8.07075 8.70418C8.11193 8.59118 8.13033 8.47115 8.12487 8.351C8.13076 8.23075 8.11267 8.11054 8.07165 7.99735C8.03063 7.88416 7.96749 7.78027 7.88592 7.69173C7.80436 7.60318 7.70599 7.53174 7.59654 7.48159C7.4871 7.43143 7.36877 7.40355 7.24844 7.39957ZM10.377 7.39957C10.1855 7.38383 9.99372 7.42624 9.82671 7.52126C9.6597 7.61628 9.52526 7.75949 9.44095 7.93215C9.35664 8.10481 9.32641 8.2989 9.35419 8.48903C9.38197 8.67915 9.46647 8.85647 9.59666 8.9978C9.72684 9.13912 9.89664 9.23787 10.0839 9.28114C10.2711 9.3244 10.467 9.31016 10.646 9.24029C10.825 9.17041 10.9787 9.04815 11.0871 8.88948C11.1955 8.73082 11.2534 8.54315 11.2534 8.351C11.2589 8.23103 11.2406 8.11116 11.1995 7.9983C11.1585 7.88544 11.0955 7.78181 11.0143 7.69338C10.933 7.60495 10.835 7.53347 10.726 7.48304C10.6171 7.43262 10.4992 7.40425 10.3792 7.39957H10.377Z" fill="#757185"/>
<path id="Vector_2" d="M14.5446 0.207886H3.05891C2.82742 0.208447 2.5983 0.254636 2.38467 0.34381C2.17104 0.432983 1.97708 0.563393 1.81389 0.727583C1.65069 0.891772 1.52147 1.08652 1.43359 1.30069C1.34572 1.51486 1.30092 1.74425 1.30177 1.97574V13.5622C1.30092 13.7937 1.34572 14.0231 1.43359 14.2372C1.52147 14.4514 1.65069 14.6461 1.81389 14.8103C1.97708 14.9745 2.17104 15.1049 2.38467 15.1941C2.5983 15.2833 2.82742 15.3295 3.05891 15.33H12.7789L12.3246 13.7443L13.4218 14.7622L14.4589 15.7222L16.3018 17.3507V1.97574C16.3026 1.74425 16.2578 1.51486 16.1699 1.30069C16.0821 1.08652 15.9528 0.891772 15.7897 0.727583C15.6265 0.563393 15.4325 0.432983 15.2189 0.34381C15.0052 0.254636 14.7761 0.208447 14.5446 0.207886V0.207886ZM11.2361 11.4043C11.2361 11.4043 10.9275 11.0357 10.6703 10.7079C11.2921 10.5626 11.8424 10.2021 12.2239 9.69003C11.9155 9.89528 11.5848 10.0649 11.2382 10.1957C10.8395 10.3659 10.4224 10.4896 9.99534 10.5643C9.26124 10.6995 8.50837 10.6966 7.77534 10.5557C7.34499 10.4715 6.92323 10.3482 6.51534 10.1872C6.17091 10.0536 5.84187 9.88336 5.53391 9.67931C5.90072 10.181 6.4313 10.5388 7.03391 10.6907C6.77677 11.0165 6.45963 11.4022 6.45963 11.4022C5.95046 11.4159 5.44572 11.3043 4.98984 11.0771C4.53397 10.8499 4.14093 10.5141 3.84534 10.0993C3.87249 8.36181 4.2938 6.65314 5.07748 5.10217C5.76837 4.5596 6.61078 4.2451 7.4882 4.20217L7.57391 4.30503C6.74911 4.50915 5.97943 4.89252 5.31963 5.42789C5.31963 5.42789 5.5082 5.32503 5.82534 5.17931C6.44213 4.89785 7.09952 4.71561 7.7732 4.63931C7.82118 4.62938 7.86994 4.62365 7.91891 4.62217C8.4933 4.54733 9.07458 4.54158 9.65034 4.60503C10.5558 4.70844 11.4322 4.98798 12.2303 5.42789C11.604 4.91803 10.8765 4.54699 10.0961 4.33931L10.2161 4.20217C11.0935 4.2451 11.9359 4.5596 12.6268 5.10217C13.4105 6.65314 13.8318 8.36181 13.8589 10.0993C13.5611 10.5141 13.1665 10.8498 12.7094 11.0772C12.2523 11.3047 11.7465 11.4169 11.2361 11.4043Z" fill="#757185"/>
</g>
</g>
<defs>
<clipPath id="clip0_76_1277">
<rect width="17.1429" height="17.1429" fill="white" transform="translate(0.230469 0.207886)"/>
</clipPath>
</defs>
</svg>
