<svg width="21" height="16" viewBox="0 0 21 16" fill="none" xmlns="http://www.w3.org/2000/svg">
<path d="M17.7777 1.32631C16.4394 0.712318 15.0038 0.260056 13.5032 0.00100707C13.476 -0.00376363 13.4488 0.0086401 13.4345 0.0334477C13.2498 0.361672 13.0455 0.789603 12.9023 1.12641C11.2882 0.885017 9.6821 0.885017 8.10135 1.12641C7.95817 0.782447 7.74625 0.361672 7.56059 0.0334477C7.54627 0.00911717 7.51907 -0.00328656 7.49186 0.00100707C5.99177 0.259102 4.55659 0.711364 3.21734 1.32631C3.20588 1.33108 3.19586 1.33966 3.18918 1.35064C0.466769 5.41622 -0.27922 9.3821 0.0868539 13.2984C0.0882858 13.3175 0.0992633 13.3361 0.114059 13.3475C1.91007 14.6661 3.65023 15.4667 5.35794 15.9972C5.38515 16.0053 5.41426 15.9957 5.43144 15.9728C5.83522 15.4213 6.19557 14.8403 6.50437 14.2287C6.52251 14.1929 6.50532 14.1504 6.4681 14.1361C5.89679 13.9195 5.35317 13.6557 4.83007 13.3556C4.78854 13.3313 4.7852 13.2721 4.82339 13.244C4.93364 13.1615 5.04341 13.0756 5.14889 12.9892C5.16798 12.9735 5.19423 12.9701 5.21667 12.9802C8.65356 14.5488 12.3744 14.5488 15.7708 12.9802C15.7932 12.9692 15.8195 12.9725 15.8395 12.9883C15.9445 13.0751 16.0548 13.1615 16.1655 13.244C16.2037 13.2721 16.2013 13.3313 16.1598 13.3556C15.6367 13.6614 15.0926 13.9195 14.5208 14.1351C14.4835 14.1495 14.4668 14.1924 14.485 14.2287C14.8005 14.8393 15.1603 15.4204 15.5569 15.9719C15.5737 15.9952 15.6032 16.0053 15.6305 15.9967C17.3463 15.4662 19.0864 14.6657 20.8824 13.347C20.8982 13.3356 20.9082 13.3179 20.9097 13.2988C21.3473 8.77098 20.1761 4.83802 17.8049 1.35111C17.7992 1.33966 17.7892 1.33108 17.7777 1.32631ZM7.01744 10.9135C5.9827 10.9135 5.13028 9.96413 5.13028 8.79769C5.13028 7.63126 5.96647 6.68189 7.01744 6.68189C8.07701 6.68189 8.92132 7.63985 8.90461 8.79769C8.90509 9.96365 8.06889 10.9135 7.01744 10.9135ZM13.9958 10.9135C12.961 10.9135 12.1086 9.96413 12.1086 8.79769C12.1086 7.63126 12.9448 6.68189 13.9958 6.68189C15.0553 6.68189 15.8996 7.63985 15.8829 8.79769C15.8829 9.96365 15.0553 10.9135 13.9958 10.9135Z" fill="#222425"/>
</svg>
