<svg width="85" height="34" viewBox="0 0 85 34" fill="none" xmlns="http://www.w3.org/2000/svg">
<g id="Group 1142813152">
<g id="Group">
<path id="Vector" d="M23.1379 3.88355L18.8462 1.40232C18.8462 1.40232 18.8462 1.40232 18.829 1.40232L17.8293 0.833698C17.1743 0.540774 16.4504 0.368469 15.6921 0.368469C15.6576 0.368469 15.6231 0.368469 15.5886 0.368469C14.7268 0.368469 13.9168 0.558005 13.1756 0.919852H13.1584L12.4862 1.31616L10.866 2.24663L8.09106 3.84909L8.05658 3.86632L5.54015 5.31371L4.35088 6.00294L4.33365 6.02017L3.91999 6.2614L3.86828 6.29587C3.86828 6.29587 3.86828 6.29587 3.85104 6.29587C3.71316 6.39925 3.59251 6.50264 3.48909 6.62325C3.07543 7.08849 2.81689 7.69157 2.81689 8.36357C2.81689 9.10449 3.12714 9.77649 3.62698 10.259L4.67836 10.862L7.97041 12.7747L8.07382 12.8263L9.33203 13.55C9.29756 13.5156 9.24586 13.4811 9.21138 13.4467C9.05626 13.3088 8.90114 13.171 8.76325 13.0159C8.65984 12.8953 8.57366 12.7919 8.48748 12.654C8.45301 12.6196 8.43577 12.5679 8.4013 12.5334C8.28065 12.3439 8.17724 12.1371 8.09106 11.9303C8.02211 11.7925 7.97041 11.6374 7.93593 11.4823C7.83252 11.1377 7.78081 10.7759 7.78081 10.3968C7.78081 10.0177 7.83252 9.65588 7.93593 9.31126C8.26342 8.19126 9.05626 7.26079 10.1076 6.77833C10.4351 6.62325 10.7971 6.51987 11.159 6.46818C11.2107 6.46818 11.2624 6.45095 11.3142 6.45095C11.452 6.43371 11.6072 6.43371 11.745 6.43371C11.8657 6.43371 11.9691 6.43371 12.0898 6.45095C12.2104 6.45095 12.3311 6.46817 12.4517 6.50264C12.6585 6.5371 12.8481 6.58879 13.0377 6.65772C13.4342 6.84726 14.4166 7.48479 14.4166 7.48479L15.7438 8.26018L15.7782 8.27741L16.0368 8.43249L19.1047 10.2073L23.1724 12.5679L23.4137 12.7057C26.7574 10.7759 26.7574 5.96848 23.4137 4.03863L23.2586 3.95248L23.1379 3.88355Z" fill="url(#paint0_linear_113_13951)"/>
<path id="Vector_2" d="M1.5758 16.4965C1.04149 15.5488 0.524414 14.0497 0.524414 12.654C0.524414 11.3272 0.86913 10.0866 1.47238 9.00106C1.98946 8.0706 2.69613 7.26075 3.52344 6.64044C3.10979 7.10567 2.85125 7.70875 2.85125 8.38076C2.85125 9.12168 3.16149 9.79368 3.66133 10.2761L4.71272 10.8792L8.00476 12.7918L8.10817 12.8435L9.36639 13.5672L10.2626 14.0841L14.5371 16.5482C15.5196 17.0823 15.7781 18.4091 15.7781 20.5457V25.9906L13.7615 24.8362L12.3999 24.0436L8.12541 21.5796H8.10817L4.76442 19.6497C3.00637 18.5125 1.92051 17.1168 1.5758 16.4965Z" fill="#185BE7"/>
<path id="Vector_3" d="M4.24733 23.8024C2.59269 24.7501 2.59269 27.1279 4.24733 28.0929L8.10815 30.3156L8.34945 30.4535L12.7618 33.0036C12.7618 33.0036 12.7791 33.0036 12.7791 33.0209L13.3995 33.3827C14.1235 33.7446 14.9335 33.9513 15.7781 33.9686C15.8126 33.9686 15.847 33.9686 15.8815 33.9686C16.6916 33.9686 17.45 33.7963 18.1394 33.4861L19.1391 32.9002L23.2067 30.5396L23.4136 30.419L24.5166 29.7815L26.9124 28.403L27.8604 27.8516C27.9983 27.7655 28.1189 27.6621 28.2568 27.5587C28.3775 27.2313 28.4292 26.8695 28.4292 26.5076C28.4292 25.3187 27.8087 24.2676 26.8607 23.6818L26.6884 23.5784C26.6884 23.5784 26.6711 23.5784 26.6711 23.5611L23.4653 21.7002L23.224 21.5624L21.8623 20.787C22.276 21.1316 22.6207 21.5451 22.862 22.0448C23.1206 22.5445 23.2584 23.1304 23.2584 23.7335V23.7507C23.2584 24.9568 22.6897 26.0424 21.8279 26.7316C21.6727 26.8695 21.5004 26.9729 21.3108 27.0762C20.7765 27.3692 20.1732 27.5587 19.5355 27.5759C19.501 27.5759 19.4666 27.5759 19.4321 27.5759C19.3631 27.5759 19.277 27.5759 19.208 27.5759C19.1218 27.5759 19.0529 27.5587 18.9667 27.5587C18.6909 27.5242 18.4324 27.4725 18.1911 27.3864L16.8984 26.6455L15.916 26.0768L15.7781 25.9907L13.7615 24.8362L12.3999 24.0436L8.12539 21.5796H8.10815L4.24733 23.8024Z" fill="url(#paint1_linear_113_13951)"/>
<path id="Vector_4" d="M31.2216 21.545C31.2216 23.0097 30.808 24.3881 30.084 25.5426C29.6014 26.318 28.981 27.0072 28.2571 27.5586C28.3777 27.2312 28.4294 26.8694 28.4294 26.5075C28.4294 25.3186 27.8089 24.2675 26.8609 23.6817C26.8092 23.6472 26.7403 23.6127 26.6886 23.5783C26.6886 23.5783 26.6714 23.5783 26.6714 23.5611L23.4655 21.7001L23.2242 21.5623L21.8626 20.7869L20.7767 20.1666L17.7432 18.409L17.1399 18.0644C17.071 18.0127 17.0021 17.961 16.9504 17.9093C16.6229 17.6337 16.3643 17.3063 16.1575 16.9272C15.9679 16.5481 15.83 16.1518 15.7783 15.7038V8.24286L15.8128 8.26009L16.0713 8.41517L19.1393 10.1899L23.207 12.5506L23.4483 12.6884L26.8437 14.6527L27.9468 15.2903C28.8775 15.945 29.6704 16.7893 30.2392 17.7887C30.8597 18.9087 31.2216 20.1838 31.2216 21.545Z" fill="#185BE7"/>
</g>
<g id="Group_2">
<g id="Group_3">
<path id="Vector_5" d="M40.2017 6.41644C43.5799 6.41644 45.6999 8.27737 45.6999 11.2583H42.2872C42.2872 10.1555 41.4599 9.48353 40.1672 9.48353C38.7711 9.48353 37.8748 10.1211 37.8748 11.1549C37.8748 12.1026 38.3574 12.5678 39.4605 12.8091L41.8218 13.2915C44.6313 13.8602 45.9584 15.2042 45.9584 17.6854C45.9584 20.718 43.5799 22.6996 39.9776 22.6996C36.4787 22.6996 34.2036 20.8042 34.2036 17.8577H37.6163C37.6163 18.9949 38.4609 19.6325 39.9948 19.6325C41.5461 19.6325 42.5285 19.0122 42.5285 18.0128C42.5285 17.1512 42.1321 16.7032 41.0807 16.4792L38.6849 15.9968C35.8755 15.4282 34.4449 13.8257 34.4449 11.2583C34.4277 8.43245 36.8235 6.41644 40.2017 6.41644Z" fill="black"/>
<path id="Vector_6" d="M53.0941 11.4824C56.4723 11.4824 58.937 13.7396 58.937 17.0824C58.937 20.4424 56.4723 22.6652 53.0941 22.6652C49.6986 22.6652 47.2339 20.4424 47.2339 17.0824C47.2511 13.7224 49.6986 11.4824 53.0941 11.4824ZM53.0941 19.7359C54.5936 19.7359 55.645 18.6676 55.645 17.0651C55.645 15.4799 54.6108 14.4116 53.0941 14.4116C51.5601 14.4116 50.5259 15.4799 50.5259 17.0651C50.5259 18.6676 51.5773 19.7359 53.0941 19.7359Z" fill="black"/>
<path id="Vector_7" d="M68.4683 14.515H64.5558V22.4067H61.281V14.515H59.8159V11.7925H61.281V10.9482C61.281 7.79497 62.9184 6.4165 65.4003 6.4165C65.8485 6.4165 66.3483 6.45097 66.8654 6.53712V9.34574H65.9519C64.8315 9.34574 64.5558 10.0522 64.5558 10.9654V11.8098H71.7431V22.4239H68.4511V14.515H68.4683ZM68.2442 8.27744C68.2442 7.24359 69.0716 6.43374 70.1057 6.43374C71.1226 6.43374 71.9499 7.24359 71.9499 8.27744C71.9499 9.31128 71.1226 10.1384 70.1057 10.1384C69.0888 10.1384 68.2442 9.31128 68.2442 8.27744Z" fill="black"/>
<path id="Vector_8" d="M74.2422 22.4067V11.7925H77.3274L77.5342 12.8953C78.1892 11.982 79.3957 11.4479 80.7746 11.4479C83.3082 11.4479 84.756 13.0676 84.756 15.8417V22.3894H81.4812V16.6171C81.4812 15.2731 80.7401 14.4116 79.6198 14.4116C78.3271 14.4116 77.4998 15.2559 77.4998 16.5827V22.3894H74.2422V22.4067Z" fill="black"/>
</g>
<g id="Group_4">
<path id="Vector_9" d="M34.8066 24.2678H36.6509C37.6161 24.2678 38.2193 24.7675 38.2193 25.5773C38.2193 26.1632 37.9608 26.5767 37.4437 26.7835C38.0297 26.973 38.3227 27.3865 38.3227 28.0069C38.3227 28.8167 37.7195 29.3336 36.7543 29.3336H34.8066V24.2678ZM35.3065 24.733V26.5767H36.7026C37.3403 26.5767 37.7023 26.2321 37.7023 25.629C37.7023 25.0604 37.3231 24.733 36.6509 24.733H35.3065ZM35.3065 27.0247V28.8684H36.7543C37.4092 28.8684 37.8057 28.5238 37.8057 27.9379C37.8057 27.3693 37.4092 27.0247 36.7543 27.0247H35.3065Z" fill="black"/>
<path id="Vector_10" d="M40.9253 26.3009H40.6496C40.0291 26.3009 39.6154 26.7317 39.6154 27.3692V29.3163H39.1328V25.9046H39.5982L39.6327 26.4388C39.7705 26.0769 40.1325 25.8357 40.5979 25.8357C40.7013 25.8357 40.7874 25.8357 40.9081 25.8702V26.3009H40.9253Z" fill="black"/>
<path id="Vector_11" d="M42.942 25.8184C43.9417 25.8184 44.6828 26.5766 44.6828 27.6104C44.6828 28.6443 43.9417 29.4024 42.942 29.4024C41.9423 29.4024 41.2012 28.6443 41.2012 27.6104C41.2012 26.5766 41.9423 25.8184 42.942 25.8184ZM42.942 28.9717C43.6659 28.9717 44.183 28.4203 44.183 27.6104C44.183 26.8178 43.6659 26.2492 42.942 26.2492C42.2009 26.2492 41.701 26.8178 41.701 27.6104C41.701 28.4203 42.2009 28.9717 42.942 28.9717Z" fill="black"/>
<path id="Vector_12" d="M44.8892 25.9047H45.389L46.0612 27.9724C46.1474 28.1964 46.1991 28.4376 46.268 28.7133C46.3197 28.4376 46.4404 28.093 46.4749 27.9724L47.1471 25.9047H47.6469L48.3191 27.9724C48.388 28.1619 48.4742 28.4548 48.5259 28.7133C48.5949 28.4376 48.6121 28.3514 48.7327 27.9724L49.4049 25.9047H49.9048L48.75 29.3164H48.2846L47.5779 27.1797C47.4918 26.9213 47.4401 26.7145 47.3884 26.5077C47.3366 26.6973 47.2849 26.904 47.1988 27.1797L46.4921 29.3164H46.0095L44.8892 25.9047Z" fill="black"/>
<path id="Vector_13" d="M50.698 28.3687C50.698 28.765 50.991 29.0062 51.4736 29.0062C52.0079 29.0062 52.3182 28.7822 52.3182 28.4204C52.3182 28.1447 52.1803 27.9724 51.7666 27.869L51.1806 27.7139C50.5946 27.5588 50.3016 27.2487 50.3016 26.7834C50.3016 26.1803 50.8014 25.8013 51.5425 25.8013C52.2664 25.8013 52.7318 26.1976 52.749 26.8351H52.2837C52.2664 26.4388 51.9907 26.2148 51.5425 26.2148C51.0599 26.2148 50.8014 26.4216 50.8014 26.7834C50.8014 27.0419 50.991 27.2314 51.3529 27.3176L51.939 27.4727C52.525 27.6277 52.8008 27.9034 52.8008 28.3859C52.8008 29.0062 52.2837 29.4025 51.5081 29.4025C50.7325 29.4025 50.2671 28.989 50.2671 28.3514H50.698V28.3687Z" fill="black"/>
<path id="Vector_14" d="M53.335 27.6277C53.335 26.5594 53.9899 25.8357 54.9724 25.8357C55.9031 25.8357 56.5236 26.4905 56.5236 27.4554V27.6966H53.8003C53.8348 28.5237 54.2657 29.0062 55.0068 29.0062C55.5584 29.0062 55.9203 28.7649 56.0582 28.3169H56.5236C56.334 29.0406 55.8169 29.4197 55.0068 29.4197C54.0072 29.4025 53.335 28.696 53.335 27.6277ZM53.8176 27.3348H56.041C56.041 26.68 55.6101 26.2492 54.9724 26.2492C54.3346 26.232 53.9037 26.6628 53.8176 27.3348Z" fill="black"/>
<path id="Vector_15" d="M59.0918 26.3009H58.8161C58.1956 26.3009 57.7819 26.7317 57.7819 27.3692V29.3163H57.2993V25.9046H57.7647L57.7992 26.4388C57.937 26.0769 58.299 25.8357 58.7644 25.8357C58.8678 25.8357 58.954 25.8357 59.0746 25.8702V26.3009H59.0918Z" fill="black"/>
</g>
</g>
</g>
<defs>
<linearGradient id="paint0_linear_113_13951" x1="2.76053" y1="6.95516" x2="25.8886" y2="6.95516" gradientUnits="userSpaceOnUse">
<stop stop-color="#FFCAA4"/>
<stop offset="0.4372" stop-color="#E097EB"/>
<stop offset="1" stop-color="#57FFCC"/>
</linearGradient>
<linearGradient id="paint1_linear_113_13951" x1="30.3049" y1="25.7593" x2="7.97371" y2="28.2175" gradientUnits="userSpaceOnUse">
<stop stop-color="#FFCAA4"/>
<stop offset="0.4372" stop-color="#E097EB"/>
<stop offset="1" stop-color="#57FFCC"/>
</linearGradient>
</defs>
</svg>
