<svg width="118" height="35" viewBox="0 0 118 35" fill="none" xmlns="http://www.w3.org/2000/svg">
<path fill-rule="evenodd" clip-rule="evenodd" d="M1.2832 8.93696V14.2866L16.3635 5.62204L27.5609 12.1841L32.3805 9.42021L16.3635 0.170654L1.2832 8.93696ZM0.34668 16.696L5.09812 19.18L16.3636 12.83L31.3077 21.5963V15.9329L16.3636 7.4464L0.34668 16.696ZM0.34668 23.8434L16.1593 14.5175L32.3806 23.8434L16.3636 32.9573L0.34668 23.8434ZM43.1865 17.8567C39.7208 17.8567 37.7197 16.3221 37.1918 13.2531H40.1806C40.5382 14.6265 41.543 15.3133 43.1865 15.3133C44.0294 15.3133 44.7107 15.1606 45.2301 14.8639C45.7495 14.5672 46.0135 14.1263 46.0135 13.5583C46.0135 12.719 45.4855 12.2527 44.4297 12.1425L41.6197 11.8373C40.4275 11.7016 39.4653 11.2862 38.733 10.591C38.0007 9.89578 37.6261 8.98015 37.6261 7.86104C37.6261 6.54695 38.1199 5.49567 39.1162 4.70721C40.1125 3.91875 41.3983 3.52028 42.9651 3.52028C44.4382 3.52028 45.6984 3.88484 46.7287 4.62243C47.7591 5.36002 48.4062 6.38586 48.6532 7.71692H45.6644C45.2301 6.63173 44.3104 6.08913 42.8969 6.08913C42.1135 6.08913 41.509 6.24174 41.0832 6.55542C40.6489 6.86911 40.4361 7.26758 40.4361 7.75931C40.4361 8.16625 40.5808 8.48842 40.8703 8.73428C41.1598 8.98015 41.543 9.12427 42.0199 9.17514L44.7873 9.4634C46.0135 9.59904 46.9927 9.98903 47.7335 10.6588C48.4743 11.3201 48.8405 12.2188 48.8405 13.3379C48.8405 14.6604 48.3296 15.7541 47.3078 16.6019C46.286 17.4497 44.915 17.8736 43.1865 17.8736V17.8567ZM57.9081 17.8651C60.0539 17.8651 61.8165 17.1954 63.2045 15.8643C64.5925 14.5333 65.2822 12.8122 65.2822 10.6927C65.2822 8.5732 64.5925 6.85216 63.2045 5.5211C61.825 4.19005 60.0539 3.52028 57.9081 3.52028C55.7623 3.52028 53.9996 4.19005 52.6117 5.5211C51.2237 6.85216 50.534 8.5732 50.534 10.6927C50.534 12.8122 51.2237 14.5333 52.6117 15.8643C53.9911 17.1954 55.7623 17.8651 57.9081 17.8651ZM57.9081 15.2115C56.5712 15.2115 55.4813 14.7876 54.6298 13.9483C53.7782 13.1005 53.3525 12.0238 53.3525 10.6927C53.3525 9.36166 53.7782 8.27647 54.6298 7.43714C55.4813 6.59781 56.5712 6.17391 57.9081 6.17391C59.245 6.17391 60.3349 6.59781 61.1864 7.43714C62.0379 8.28495 62.4637 9.36166 62.4637 10.6927C62.4637 12.0238 62.0379 13.109 61.1864 13.9483C60.3349 14.7876 59.245 15.2115 57.9081 15.2115ZM76.6081 12.448H70.673V17.6789H67.8801V6.03856C67.8801 5.30097 68.0844 4.72446 68.5017 4.31751C68.9189 3.91057 69.4894 3.70709 70.2217 3.70709H77.0424V6.36072H71.2095C70.8519 6.36072 70.673 6.53876 70.673 6.89484V9.79433H76.6081V12.448ZM79.469 3.70709V17.6789H82.2619V3.70709H79.469ZM88.5886 6.96247V17.6787H85.8893V6.75052C85.8893 5.75011 86.1448 4.97013 86.6642 4.42753C87.1836 3.88494 87.9074 3.61364 88.8441 3.61364C89.5253 3.61364 90.0958 3.79168 90.5556 4.14776C91.0154 4.50383 91.4412 5.14817 91.8329 6.08075L95.3752 14.4486C95.4688 14.6775 95.6051 14.7877 95.7754 14.7877C96.0138 14.7877 96.133 14.6605 96.133 14.4147V3.7069H98.8494V14.6351C98.8494 15.6355 98.5939 16.4155 98.0915 16.9581C97.5891 17.5007 96.8738 17.772 95.9457 17.772C95.2645 17.772 94.6769 17.5939 94.2001 17.2294C93.7232 16.8648 93.2805 16.2205 92.8888 15.3049L89.3465 6.93703C89.2528 6.70813 89.1166 6.59791 88.9548 6.59791C88.7163 6.59791 88.5971 6.72508 88.5971 6.97095L88.5886 6.96247ZM92.6989 28.8812H94.1295V27.031L95.1641 26.0263L97.1823 28.8812H98.9195L96.1477 24.948L98.7279 22.3626H96.8885L94.1295 25.1318V19.7895H92.6989V28.8812ZM90.2359 23.5839C89.5855 23.5839 89.0958 23.8072 88.7668 24.2538C88.4377 24.7004 88.2731 25.3 88.2731 26.0526V28.8812H86.9568V22.2813H88.2731V23.6087C88.4847 23.1952 88.7707 22.8561 89.1311 22.5914C89.4994 22.3268 89.8872 22.1903 90.2946 22.182L90.3064 23.5839H90.2359ZM80.9756 27.6587C80.3518 27.6587 79.8348 27.4631 79.4247 27.0719C79.0231 26.6726 78.8223 26.1591 78.8223 25.5316C78.8223 24.9041 79.0231 24.3947 79.4247 24.0035C79.8348 23.6042 80.3518 23.4045 80.9756 23.4045C81.5993 23.4045 82.112 23.6042 82.5136 24.0035C82.9238 24.3947 83.1289 24.9041 83.1289 25.5316C83.1289 26.1591 82.9238 26.6726 82.5136 27.0719C82.112 27.4631 81.5993 27.6587 80.9756 27.6587ZM80.9756 28.8812C82.0009 28.8812 82.8554 28.5593 83.539 27.9154C84.2226 27.2634 84.5644 26.4688 84.5644 25.5316C84.5644 24.5944 84.2226 23.8039 83.539 23.16C82.8554 22.508 82.0009 22.182 80.9756 22.182C79.9502 22.182 79.0957 22.508 78.4121 23.16C77.7285 23.8039 77.3867 24.5944 77.3867 25.5316C77.3867 26.4688 77.7285 27.2634 78.4121 27.9154C79.0957 28.5593 79.9502 28.8812 80.9756 28.8812ZM63.9886 22.182H65.446L67.1044 27.2442L68.7628 22.182H70.2202L71.8786 27.2442L73.5369 22.182H74.9943L72.6826 28.8812H71.0745L69.4915 24.2976L67.9085 28.8812H66.3003L63.9886 22.182ZM59.3728 26.6883V23.399H61.0023V22.3025H59.3728V20.268H58.0692V22.3025H57.2894V23.399H58.0692V26.6518C58.0692 27.334 58.2632 27.8781 58.6512 28.2842C59.0469 28.6822 59.5203 28.8812 60.0712 28.8812C60.6299 28.8812 61.1381 28.666 61.5959 28.2355L61.0605 27.2731C60.8045 27.5573 60.5368 27.6995 60.2574 27.6995C59.9781 27.6995 59.7608 27.6101 59.6056 27.4314C59.4504 27.2446 59.3728 26.9969 59.3728 26.6883ZM54.8966 26.1306H49.6158C49.6496 26.6033 49.8733 26.9863 50.287 27.2797C50.7007 27.565 51.1735 27.7076 51.7053 27.7076C52.5496 27.7076 53.1912 27.4509 53.6302 26.9374L54.4407 27.7932C53.7147 28.5185 52.7691 28.8812 51.604 28.8812C50.6585 28.8812 49.8522 28.5796 49.1853 27.9765C48.5267 27.3653 48.1975 26.5503 48.1975 25.5316C48.1975 24.5047 48.5352 23.6898 49.2106 23.0867C49.886 22.4836 50.6796 22.182 51.5914 22.182C52.5116 22.182 53.2925 22.451 53.9342 22.9889C54.5758 23.5186 54.8966 24.2521 54.8966 25.1893V26.1306ZM49.6158 25.0548H53.4783C53.4783 24.5088 53.301 24.0891 52.9464 23.7957C52.5918 23.5023 52.1528 23.3556 51.6294 23.3556C51.1144 23.3556 50.65 23.5105 50.2364 23.8202C49.8227 24.1217 49.6158 24.5333 49.6158 25.0548ZM45.8049 20.268H44.3977V26.7002L39.556 20.268H38.1488V28.8812H39.556V22.5969L44.2785 28.8812H45.8049V20.268Z" fill="url(#paint0_linear_99_8013)"/>
<defs>
<linearGradient id="paint0_linear_99_8013" x1="98.9195" y1="32.9573" x2="6.14508" y2="32.9573" gradientUnits="userSpaceOnUse">
<stop stop-color="#E6B452"/>
<stop offset="1" stop-color="#F1D9AE"/>
</linearGradient>
</defs>
</svg>
