<svg width="20" height="21" viewBox="0 0 20 21" fill="none" xmlns="http://www.w3.org/2000/svg">
<g id="Social icon">
<path id="Vector" fill-rule="evenodd" clip-rule="evenodd" d="M10 0.334717C4.47939 0.334717 0 4.81411 0 10.3347C0 15.8553 4.47939 20.3347 10 20.3347C15.5098 20.3347 20 15.8553 20 10.3347C20 4.81411 15.5098 0.334717 10 0.334717ZM16.6052 4.94426C17.7983 6.39762 18.5141 8.25228 18.5358 10.2588C18.2538 10.2046 15.4338 9.62972 12.5922 9.98765C12.5271 9.84665 12.4729 9.69478 12.4078 9.54297C12.2343 9.13084 12.0391 8.70784 11.8438 8.30653C14.9891 7.02672 16.4208 5.18287 16.6052 4.94426ZM10 1.80977C12.1692 1.80977 14.154 2.62322 15.6616 3.95728C15.5097 4.1742 14.2191 5.89871 11.1822 7.03753C9.78306 4.46704 8.23213 2.36292 7.9935 2.03754C8.63338 1.88569 9.30587 1.80977 10 1.80977ZM6.36662 2.61237C6.59437 2.91606 8.11281 5.03103 9.53363 7.54728C5.5423 8.61022 2.01736 8.58853 1.63774 8.58853C2.19089 5.94209 3.98047 3.74035 6.36662 2.61237ZM1.45336 10.3456C1.45336 10.2588 1.45336 10.172 1.45336 10.0853C1.82213 10.0961 5.96529 10.1503 10.2278 8.87053C10.4773 9.34772 10.705 9.83578 10.9219 10.3238C10.8134 10.3564 10.6941 10.389 10.5857 10.4215C6.18221 11.8423 3.83948 15.7252 3.64425 16.0505C2.2885 14.543 1.45336 12.5365 1.45336 10.3456ZM10 18.8813C8.026 18.8813 6.20391 18.2089 4.76139 17.0809C4.91323 16.7664 6.64856 13.4258 11.4642 11.7447C11.4859 11.7338 11.4968 11.7338 11.5184 11.723C12.7223 14.8358 13.2104 17.4497 13.3406 18.198C12.3102 18.6427 11.1822 18.8813 10 18.8813ZM14.7614 17.4172C14.6746 16.8965 14.2191 14.402 13.1019 11.3325C15.7809 10.9095 18.1236 11.6037 18.4165 11.7013C18.0478 14.0766 16.6811 16.1265 14.7614 17.4172Z" fill="#98A2B3"/>
</g>
</svg>
