<svg width="18" height="18" viewBox="0 0 18 18" fill="none" xmlns="http://www.w3.org/2000/svg">
<g id="ig">
<g id="Group">
<path id="Vector" d="M8.80169 11.4938C10.3007 11.4938 11.516 10.2785 11.516 8.77947C11.516 7.28041 10.3007 6.06519 8.80169 6.06519C7.30263 6.06519 6.0874 7.28041 6.0874 8.77947C6.0874 10.2785 7.30263 11.4938 8.80169 11.4938Z" fill="#757185"/>
<path id="Vector_2" d="M12.1937 0.636597H5.40801C2.78941 0.636597 0.658691 2.76799 0.658691 5.38728V12.173C0.658691 14.7916 2.79008 16.9223 5.40937 16.9223H12.1951C14.8137 16.9223 16.9444 14.7909 16.9444 12.1716V5.38592C16.9444 2.76731 14.813 0.636597 12.1937 0.636597ZM8.80155 12.8509C6.55616 12.8509 4.73012 11.0248 4.73012 8.77945C4.73012 6.53406 6.55616 4.70802 8.80155 4.70802C11.0469 4.70802 12.873 6.53406 12.873 8.77945C12.873 11.0248 11.0469 12.8509 8.80155 12.8509ZM13.5515 4.70802C13.177 4.70802 12.873 4.40403 12.873 4.02945C12.873 3.65488 13.177 3.35088 13.5515 3.35088C13.9261 3.35088 14.2301 3.65488 14.2301 4.02945C14.2301 4.40403 13.9261 4.70802 13.5515 4.70802Z" fill="#757185"/>
</g>
</g>
</svg>
