<svg width="251" height="805" viewBox="0 0 251 805" fill="none" xmlns="http://www.w3.org/2000/svg">
<g clip-path="url(#clip0_116_404)">
<rect x="71.5" y="0.941406" width="40" height="40" fill="#625DF5"/>
<rect x="72.5" y="1.94141" width="38" height="38" rx="19" stroke="#625DF5" stroke-width="2"/>
<circle cx="91.5" cy="20.9414" r="6" fill="#C7C7C7"/>
</g>
<rect x="72.5" y="1.94141" width="38" height="38" stroke="#625DF5" stroke-width="2"/>
<path d="M123.696 28.0414V25.7614H127.356C128.022 25.7614 128.529 25.5814 128.876 25.2214C129.222 24.8481 129.396 24.3414 129.396 23.7014C129.396 23.0614 129.222 22.5681 128.876 22.2214C128.529 21.8614 128.022 21.6814 127.356 21.6814H123.696V19.9414H127.156C128.129 19.9414 128.996 20.0614 129.756 20.3014C130.529 20.5281 131.129 20.9147 131.556 21.4614C131.996 22.0081 132.216 22.7414 132.216 23.6614V23.9414C132.216 24.8081 132.022 25.5481 131.636 26.1614C131.262 26.7614 130.696 27.2281 129.936 27.5614C129.189 27.8814 128.262 28.0414 127.156 28.0414H123.696ZM121.316 28.0414V13.2414H124.096V28.0414H121.316ZM123.696 21.2214V19.4814H126.816C127.496 19.4814 127.996 19.3014 128.316 18.9414C128.636 18.5814 128.796 18.1014 128.796 17.5014C128.796 16.9014 128.636 16.4214 128.316 16.0614C127.996 15.7014 127.496 15.5214 126.816 15.5214H123.696V13.2414H126.556C128.209 13.2414 129.462 13.5881 130.316 14.2814C131.182 14.9747 131.616 15.9681 131.616 17.2614V17.5414C131.616 18.4481 131.396 19.1747 130.956 19.7214C130.529 20.2547 129.936 20.6414 129.176 20.8814C128.416 21.1081 127.542 21.2214 126.556 21.2214H123.696ZM138.565 28.2814C137.312 28.2814 136.338 27.8681 135.645 27.0414C134.965 26.2147 134.625 24.9881 134.625 23.3614V17.0614H137.405V23.6014C137.405 24.2681 137.592 24.8014 137.965 25.2014C138.338 25.5881 138.845 25.7814 139.485 25.7814C140.125 25.7814 140.645 25.5747 141.045 25.1614C141.458 24.7481 141.665 24.1881 141.665 23.4814V17.0614H144.445V27.9414H142.245V23.3214H142.465C142.465 24.4147 142.325 25.3281 142.045 26.0614C141.765 26.7947 141.345 27.3481 140.785 27.7214C140.225 28.0947 139.525 28.2814 138.685 28.2814H138.565ZM147.319 32.2214V29.8414H149.359C149.745 29.8414 150.065 29.7881 150.319 29.6814C150.585 29.5881 150.805 29.4281 150.979 29.2014C151.152 28.9881 151.285 28.6881 151.379 28.3014L154.299 17.0814H156.959L153.739 28.9014C153.525 29.7147 153.225 30.3614 152.839 30.8414C152.452 31.3347 151.952 31.6881 151.339 31.9014C150.739 32.1147 149.992 32.2214 149.099 32.2214H147.319ZM150.699 27.7014V25.5014H153.019V27.7014H150.699ZM149.759 27.7014L146.239 17.0814H149.039L152.379 27.7014H149.759ZM163.405 27.9414V13.3414H168.065L174.205 25.5814H174.865L174.465 25.9414V13.3414H177.145V27.9414H172.465L166.325 15.7014H165.645L166.045 15.3414V27.9414H163.405ZM180.749 27.9414V13.3414H183.589V27.9414H180.749ZM183.189 21.8614V19.4614L189.029 19.4414V21.8414L183.189 21.8614ZM183.189 15.7414V13.3414H189.309V15.7414H183.189ZM194.996 27.9414V15.4414H197.836V27.9414H194.996ZM190.776 15.8414V13.3414H202.056V15.8414H190.776ZM207.028 28.2814C205.534 28.2814 204.361 27.9681 203.508 27.3414C202.668 26.7014 202.228 25.8214 202.188 24.7014H204.688C204.728 25.0747 204.934 25.4147 205.308 25.7214C205.681 26.0281 206.268 26.1814 207.068 26.1814C207.734 26.1814 208.261 26.0614 208.648 25.8214C209.048 25.5814 209.248 25.2547 209.248 24.8414C209.248 24.4814 209.094 24.1947 208.788 23.9814C208.494 23.7681 207.988 23.6281 207.268 23.5614L206.308 23.4614C205.094 23.3281 204.161 22.9814 203.508 22.4214C202.854 21.8614 202.528 21.1147 202.528 20.1814C202.528 19.4347 202.714 18.8081 203.088 18.3014C203.461 17.7947 203.974 17.4147 204.628 17.1614C205.294 16.8947 206.054 16.7614 206.908 16.7614C208.241 16.7614 209.321 17.0547 210.148 17.6414C210.974 18.2281 211.408 19.0881 211.448 20.2214H208.948C208.921 19.8481 208.734 19.5281 208.388 19.2614C208.041 18.9947 207.541 18.8614 206.888 18.8614C206.301 18.8614 205.848 18.9747 205.528 19.2014C205.208 19.4281 205.048 19.7214 205.048 20.0814C205.048 20.4281 205.174 20.6947 205.428 20.8814C205.694 21.0681 206.121 21.1947 206.708 21.2614L207.668 21.3614C208.948 21.4947 209.948 21.8481 210.668 22.4214C211.401 22.9947 211.768 23.7681 211.768 24.7414C211.768 25.4614 211.568 26.0881 211.168 26.6214C210.781 27.1414 210.234 27.5481 209.528 27.8414C208.821 28.1347 207.988 28.2814 207.028 28.2814Z" fill="#222425"/>
<rect x="88.5" y="40.9414" width="6" height="124" fill="#625DF5"/>
<rect x="88.5" y="164.941" width="6" height="40" fill="#625DF5"/>
<g clip-path="url(#clip1_116_404)">
<rect x="71.5" y="204.941" width="40" height="40" fill="#625DF5"/>
<rect x="72.5" y="205.941" width="38" height="38" rx="19" stroke="#625DF5" stroke-width="2"/>
<circle cx="91.5" cy="224.941" r="6" fill="#C7C7C7"/>
</g>
<rect x="72.5" y="205.941" width="38" height="38" stroke="#625DF5" stroke-width="2"/>
<path d="M126.678 232.321C125.385 232.321 124.292 232.115 123.398 231.701C122.518 231.288 121.845 230.721 121.378 230.001C120.912 229.268 120.678 228.441 120.678 227.521H123.458C123.458 227.908 123.565 228.288 123.778 228.661C123.992 229.021 124.332 229.315 124.798 229.541C125.278 229.768 125.905 229.881 126.678 229.881C127.372 229.881 127.952 229.781 128.418 229.581C128.885 229.381 129.232 229.121 129.458 228.801C129.685 228.468 129.798 228.095 129.798 227.681C129.798 227.161 129.578 226.748 129.138 226.441C128.698 226.121 128.018 225.921 127.098 225.841L125.818 225.741C124.418 225.621 123.298 225.188 122.458 224.441C121.632 223.681 121.218 222.681 121.218 221.441C121.218 220.508 121.438 219.708 121.878 219.041C122.318 218.361 122.932 217.841 123.718 217.481C124.518 217.108 125.452 216.921 126.518 216.921C127.625 216.921 128.578 217.115 129.378 217.501C130.178 217.888 130.798 218.435 131.238 219.141C131.678 219.835 131.898 220.655 131.898 221.601H129.118C129.118 221.201 129.018 220.835 128.818 220.501C128.632 220.155 128.345 219.881 127.958 219.681C127.585 219.468 127.105 219.361 126.518 219.361C125.958 219.361 125.492 219.455 125.118 219.641C124.745 219.828 124.465 220.081 124.278 220.401C124.092 220.721 123.998 221.068 123.998 221.441C123.998 221.895 124.165 222.295 124.498 222.641C124.832 222.975 125.358 223.168 126.078 223.221L127.358 223.341C128.398 223.421 129.312 223.641 130.098 224.001C130.885 224.361 131.492 224.848 131.918 225.461C132.358 226.075 132.578 226.815 132.578 227.681C132.578 228.601 132.338 229.415 131.858 230.121C131.378 230.815 130.692 231.355 129.798 231.741C128.918 232.128 127.878 232.321 126.678 232.321ZM139.675 232.081C138.675 232.081 137.848 231.955 137.195 231.701C136.555 231.435 136.075 230.995 135.755 230.381C135.435 229.755 135.275 228.915 135.275 227.861L135.295 218.021H137.895L137.875 228.041C137.875 228.575 138.015 228.988 138.295 229.281C138.588 229.561 139.002 229.701 139.535 229.701H141.235V232.081H139.675ZM133.555 223.121V221.081H141.235V223.121H133.555ZM150.109 231.941V228.721H149.649V225.141C149.649 224.515 149.496 224.048 149.189 223.741C148.883 223.435 148.409 223.281 147.769 223.281C147.436 223.281 147.036 223.288 146.569 223.301C146.103 223.315 145.629 223.335 145.149 223.361C144.683 223.375 144.263 223.395 143.889 223.421V221.061C144.196 221.035 144.543 221.008 144.929 220.981C145.316 220.955 145.709 220.941 146.109 220.941C146.523 220.928 146.909 220.921 147.269 220.921C148.389 220.921 149.316 221.068 150.049 221.361C150.796 221.655 151.356 222.115 151.729 222.741C152.116 223.368 152.309 224.188 152.309 225.201V231.941H150.109ZM146.609 232.221C145.823 232.221 145.129 232.081 144.529 231.801C143.943 231.521 143.483 231.121 143.149 230.601C142.829 230.081 142.669 229.455 142.669 228.721C142.669 227.921 142.863 227.268 143.249 226.761C143.649 226.255 144.203 225.875 144.909 225.621C145.629 225.368 146.469 225.241 147.429 225.241H149.949V226.901H147.389C146.749 226.901 146.256 227.061 145.909 227.381C145.576 227.688 145.409 228.088 145.409 228.581C145.409 229.075 145.576 229.475 145.909 229.781C146.256 230.088 146.749 230.241 147.389 230.241C147.776 230.241 148.129 230.175 148.449 230.041C148.783 229.895 149.056 229.655 149.269 229.321C149.496 228.975 149.623 228.508 149.649 227.921L150.329 228.701C150.263 229.461 150.076 230.101 149.769 230.621C149.476 231.141 149.063 231.541 148.529 231.821C148.009 232.088 147.369 232.221 146.609 232.221ZM162.887 231.941L159.247 226.861H157.627L162.247 221.081H165.147L160.887 226.421L160.947 225.021L166.027 231.941H162.887ZM155.287 231.941V217.341H158.067V231.941H155.287ZM172.139 232.321C171.206 232.321 170.386 232.161 169.679 231.841C168.986 231.521 168.406 231.095 167.939 230.561C167.486 230.015 167.139 229.408 166.899 228.741C166.673 228.075 166.559 227.395 166.559 226.701V226.321C166.559 225.601 166.673 224.908 166.899 224.241C167.139 223.561 167.486 222.961 167.939 222.441C168.406 221.908 168.979 221.488 169.659 221.181C170.339 220.861 171.126 220.701 172.019 220.701C173.193 220.701 174.173 220.961 174.959 221.481C175.759 221.988 176.359 222.661 176.759 223.501C177.159 224.328 177.359 225.221 177.359 226.181V227.181H167.739V225.481H175.619L174.759 226.321C174.759 225.628 174.659 225.035 174.459 224.541C174.259 224.048 173.953 223.668 173.539 223.401C173.139 223.135 172.633 223.001 172.019 223.001C171.406 223.001 170.886 223.141 170.459 223.421C170.033 223.701 169.706 224.108 169.479 224.641C169.266 225.161 169.159 225.788 169.159 226.521C169.159 227.201 169.266 227.808 169.479 228.341C169.693 228.861 170.019 229.275 170.459 229.581C170.899 229.875 171.459 230.021 172.139 230.021C172.819 230.021 173.373 229.888 173.799 229.621C174.226 229.341 174.499 229.001 174.619 228.601H177.179C177.019 229.348 176.713 230.001 176.259 230.561C175.806 231.121 175.226 231.555 174.519 231.861C173.826 232.168 173.033 232.321 172.139 232.321Z" fill="#222425"/>
<rect x="88.5" y="244.941" width="6" height="96" fill="#625DF5"/>
<rect x="88.5" y="340.941" width="6" height="40" fill="#625DF5"/>
<g clip-path="url(#clip2_116_404)">
<rect x="71.5" y="380.941" width="40" height="40" fill="#625DF5"/>
<rect x="72.5" y="381.941" width="38" height="38" rx="19" stroke="#625DF5" stroke-width="2"/>
<circle cx="91.5" cy="400.941" r="6" fill="#C7C7C7"/>
</g>
<rect x="72.5" y="381.941" width="38" height="38" stroke="#625DF5" stroke-width="2"/>
<path d="M121.702 407.941V393.341H125.582L129.242 402.061H129.602L133.242 393.341H137.182V407.941H134.362V395.481L134.722 395.521L130.782 404.961H127.882L123.922 395.521L124.302 395.481V407.941H121.702ZM145.424 408.321C144.491 408.321 143.671 408.161 142.964 407.841C142.271 407.521 141.691 407.095 141.224 406.561C140.771 406.015 140.424 405.408 140.184 404.741C139.958 404.075 139.844 403.395 139.844 402.701V402.321C139.844 401.601 139.958 400.908 140.184 400.241C140.424 399.561 140.771 398.961 141.224 398.441C141.691 397.908 142.264 397.488 142.944 397.181C143.624 396.861 144.411 396.701 145.304 396.701C146.478 396.701 147.458 396.961 148.244 397.481C149.044 397.988 149.644 398.661 150.044 399.501C150.444 400.328 150.644 401.221 150.644 402.181V403.181H141.024V401.481H148.904L148.044 402.321C148.044 401.628 147.944 401.035 147.744 400.541C147.544 400.048 147.238 399.668 146.824 399.401C146.424 399.135 145.918 399.001 145.304 399.001C144.691 399.001 144.171 399.141 143.744 399.421C143.318 399.701 142.991 400.108 142.764 400.641C142.551 401.161 142.444 401.788 142.444 402.521C142.444 403.201 142.551 403.808 142.764 404.341C142.978 404.861 143.304 405.275 143.744 405.581C144.184 405.875 144.744 406.021 145.424 406.021C146.104 406.021 146.658 405.888 147.084 405.621C147.511 405.341 147.784 405.001 147.904 404.601H150.464C150.304 405.348 149.998 406.001 149.544 406.561C149.091 407.121 148.511 407.555 147.804 407.861C147.111 408.168 146.318 408.321 145.424 408.321ZM152.967 407.941V397.081H155.167V401.741H154.967C154.967 400.648 155.107 399.735 155.387 399.001C155.667 398.255 156.08 397.695 156.627 397.321C157.187 396.935 157.88 396.741 158.707 396.741H158.827C159.667 396.741 160.36 396.935 160.907 397.321C161.467 397.695 161.88 398.255 162.147 399.001C162.427 399.735 162.567 400.648 162.567 401.741H161.867C161.867 400.648 162.007 399.735 162.287 399.001C162.58 398.255 163 397.695 163.547 397.321C164.107 396.935 164.8 396.741 165.627 396.741H165.747C166.587 396.741 167.287 396.935 167.847 397.321C168.407 397.695 168.827 398.255 169.107 399.001C169.4 399.735 169.547 400.648 169.547 401.741V407.941H166.767V401.481C166.767 400.801 166.593 400.261 166.247 399.861C165.9 399.448 165.407 399.241 164.767 399.241C164.127 399.241 163.613 399.455 163.227 399.881C162.84 400.295 162.647 400.855 162.647 401.561V407.941H159.867V401.481C159.867 400.801 159.693 400.261 159.347 399.861C159 399.448 158.507 399.241 157.867 399.241C157.227 399.241 156.713 399.455 156.327 399.881C155.94 400.295 155.747 400.855 155.747 401.561V407.941H152.967ZM178.898 408.301C178.004 408.301 177.218 408.115 176.538 407.741C175.858 407.355 175.324 406.795 174.938 406.061C174.551 405.328 174.338 404.441 174.298 403.401H174.718V407.941H172.518V393.341H175.298V400.641L174.558 401.781C174.611 400.661 174.831 399.728 175.218 398.981C175.618 398.235 176.151 397.675 176.817 397.301C177.484 396.928 178.238 396.741 179.078 396.741C179.824 396.741 180.504 396.881 181.118 397.161C181.731 397.441 182.258 397.835 182.697 398.341C183.138 398.835 183.471 399.415 183.698 400.081C183.938 400.748 184.058 401.475 184.058 402.261V402.681C184.058 403.468 183.938 404.201 183.698 404.881C183.458 405.561 183.111 406.161 182.658 406.681C182.204 407.188 181.658 407.588 181.018 407.881C180.391 408.161 179.684 408.301 178.898 408.301ZM178.278 405.961C178.878 405.961 179.398 405.815 179.838 405.521C180.291 405.215 180.644 404.801 180.898 404.281C181.151 403.761 181.278 403.161 181.278 402.481C181.278 401.788 181.151 401.188 180.898 400.681C180.644 400.175 180.291 399.781 179.838 399.501C179.398 399.221 178.878 399.081 178.278 399.081C177.731 399.081 177.224 399.201 176.758 399.441C176.304 399.681 175.931 400.035 175.638 400.501C175.358 400.968 175.218 401.528 175.218 402.181V402.981C175.218 403.608 175.364 404.141 175.658 404.581C175.951 405.021 176.331 405.361 176.798 405.601C177.264 405.841 177.758 405.961 178.278 405.961ZM191.362 408.321C190.429 408.321 189.609 408.161 188.902 407.841C188.209 407.521 187.629 407.095 187.162 406.561C186.709 406.015 186.362 405.408 186.122 404.741C185.895 404.075 185.782 403.395 185.782 402.701V402.321C185.782 401.601 185.895 400.908 186.122 400.241C186.362 399.561 186.709 398.961 187.162 398.441C187.629 397.908 188.202 397.488 188.882 397.181C189.562 396.861 190.349 396.701 191.242 396.701C192.415 396.701 193.395 396.961 194.182 397.481C194.982 397.988 195.582 398.661 195.982 399.501C196.382 400.328 196.582 401.221 196.582 402.181V403.181H186.962V401.481H194.842L193.982 402.321C193.982 401.628 193.882 401.035 193.682 400.541C193.482 400.048 193.175 399.668 192.762 399.401C192.362 399.135 191.855 399.001 191.242 399.001C190.629 399.001 190.109 399.141 189.682 399.421C189.255 399.701 188.929 400.108 188.702 400.641C188.489 401.161 188.382 401.788 188.382 402.521C188.382 403.201 188.489 403.808 188.702 404.341C188.915 404.861 189.242 405.275 189.682 405.581C190.122 405.875 190.682 406.021 191.362 406.021C192.042 406.021 192.595 405.888 193.022 405.621C193.449 405.341 193.722 405.001 193.842 404.601H196.402C196.242 405.348 195.935 406.001 195.482 406.561C195.029 407.121 194.449 407.555 193.742 407.861C193.049 408.168 192.255 408.321 191.362 408.321ZM198.904 407.941V397.081H201.104V401.681H201.044C201.044 400.121 201.378 398.941 202.044 398.141C202.711 397.341 203.691 396.941 204.984 396.941H205.384V399.361H204.624C203.691 399.361 202.964 399.615 202.444 400.121C201.938 400.615 201.684 401.335 201.684 402.281V407.941H198.904ZM211.184 408.281C209.691 408.281 208.517 407.968 207.664 407.341C206.824 406.701 206.384 405.821 206.344 404.701H208.844C208.884 405.075 209.091 405.415 209.464 405.721C209.837 406.028 210.424 406.181 211.224 406.181C211.891 406.181 212.417 406.061 212.804 405.821C213.204 405.581 213.404 405.255 213.404 404.841C213.404 404.481 213.251 404.195 212.944 403.981C212.651 403.768 212.144 403.628 211.424 403.561L210.464 403.461C209.251 403.328 208.317 402.981 207.664 402.421C207.011 401.861 206.684 401.115 206.684 400.181C206.684 399.435 206.871 398.808 207.244 398.301C207.617 397.795 208.131 397.415 208.784 397.161C209.451 396.895 210.211 396.761 211.064 396.761C212.397 396.761 213.477 397.055 214.304 397.641C215.131 398.228 215.564 399.088 215.604 400.221H213.104C213.077 399.848 212.891 399.528 212.544 399.261C212.197 398.995 211.697 398.861 211.044 398.861C210.457 398.861 210.004 398.975 209.684 399.201C209.364 399.428 209.204 399.721 209.204 400.081C209.204 400.428 209.331 400.695 209.584 400.881C209.851 401.068 210.277 401.195 210.864 401.261L211.824 401.361C213.104 401.495 214.104 401.848 214.824 402.421C215.557 402.995 215.924 403.768 215.924 404.741C215.924 405.461 215.724 406.088 215.324 406.621C214.937 407.141 214.391 407.548 213.684 407.841C212.977 408.135 212.144 408.281 211.184 408.281ZM218.221 407.941V393.341H221.001V401.861H220.521C220.521 400.768 220.661 399.841 220.941 399.081C221.221 398.321 221.634 397.741 222.181 397.341C222.741 396.941 223.447 396.741 224.301 396.741H224.421C225.661 396.741 226.601 397.168 227.241 398.021C227.881 398.875 228.201 400.115 228.201 401.741V407.941H225.421V401.481C225.421 400.788 225.221 400.241 224.821 399.841C224.434 399.441 223.921 399.241 223.281 399.241C222.601 399.241 222.047 399.468 221.621 399.921C221.207 400.361 221.001 400.941 221.001 401.661V407.941H218.221ZM231.709 407.941V397.081H234.489V407.941H231.709ZM230.189 399.161V397.081H234.489V399.161H230.189ZM232.729 395.781C232.183 395.781 231.776 395.641 231.509 395.361C231.256 395.068 231.129 394.708 231.129 394.281C231.129 393.828 231.256 393.461 231.509 393.181C231.776 392.901 232.183 392.761 232.729 392.761C233.276 392.761 233.676 392.901 233.929 393.181C234.183 393.461 234.309 393.828 234.309 394.281C234.309 394.708 234.183 395.068 233.929 395.361C233.676 395.641 233.276 395.781 232.729 395.781ZM237.693 411.941V397.081H239.893V401.761L239.553 401.741C239.607 400.635 239.833 399.708 240.233 398.961C240.647 398.215 241.193 397.661 241.873 397.301C242.553 396.928 243.313 396.741 244.153 396.741C244.927 396.741 245.62 396.881 246.233 397.161C246.86 397.441 247.393 397.835 247.833 398.341C248.287 398.848 248.633 399.441 248.873 400.121C249.113 400.788 249.233 401.508 249.233 402.281V402.701C249.233 403.488 249.113 404.221 248.873 404.901C248.647 405.568 248.307 406.161 247.853 406.681C247.413 407.188 246.88 407.588 246.253 407.881C245.627 408.161 244.927 408.301 244.153 408.301C243.34 408.301 242.593 408.135 241.913 407.801C241.247 407.455 240.707 406.928 240.293 406.221C239.88 405.501 239.647 404.575 239.593 403.441L240.473 404.781V411.941H237.693ZM243.453 405.961C244.053 405.961 244.573 405.815 245.013 405.521C245.467 405.228 245.82 404.821 246.073 404.301C246.327 403.768 246.453 403.168 246.453 402.501C246.453 401.808 246.327 401.208 246.073 400.701C245.82 400.195 245.467 399.801 245.013 399.521C244.573 399.228 244.053 399.081 243.453 399.081C242.907 399.081 242.4 399.201 241.933 399.441C241.48 399.681 241.107 400.035 240.813 400.501C240.533 400.968 240.393 401.528 240.393 402.181V402.981C240.393 403.608 240.54 404.141 240.833 404.581C241.127 405.021 241.507 405.361 241.973 405.601C242.44 405.841 242.933 405.961 243.453 405.961Z" fill="#222425"/>
<rect x="88.5" y="420.941" width="6" height="152" fill="#969A9C"/>
<rect x="88.5" y="572.941" width="6" height="40" fill="#969A9C"/>
<g clip-path="url(#clip3_116_404)">
<rect x="71.5" y="612.941" width="40" height="40" fill="#969A9C"/>
<rect x="72.5" y="613.941" width="38" height="38" rx="19" stroke="#969A9C" stroke-width="2"/>
<circle cx="91.5" cy="632.941" r="6" fill="#C7C7C7"/>
</g>
<rect x="72.5" y="613.941" width="38" height="38" stroke="#969A9C" stroke-width="2"/>
<path d="M123.696 640.041V637.761H127.356C128.022 637.761 128.529 637.581 128.876 637.221C129.222 636.848 129.396 636.341 129.396 635.701C129.396 635.061 129.222 634.568 128.876 634.221C128.529 633.861 128.022 633.681 127.356 633.681H123.696V631.941H127.156C128.129 631.941 128.996 632.061 129.756 632.301C130.529 632.528 131.129 632.915 131.556 633.461C131.996 634.008 132.216 634.741 132.216 635.661V635.941C132.216 636.808 132.022 637.548 131.636 638.161C131.262 638.761 130.696 639.228 129.936 639.561C129.189 639.881 128.262 640.041 127.156 640.041H123.696ZM121.316 640.041V625.241H124.096V640.041H121.316ZM123.696 633.221V631.481H126.816C127.496 631.481 127.996 631.301 128.316 630.941C128.636 630.581 128.796 630.101 128.796 629.501C128.796 628.901 128.636 628.421 128.316 628.061C127.996 627.701 127.496 627.521 126.816 627.521H123.696V625.241H126.556C128.209 625.241 129.462 625.588 130.316 626.281C131.182 626.975 131.616 627.968 131.616 629.261V629.541C131.616 630.448 131.396 631.175 130.956 631.721C130.529 632.255 129.936 632.641 129.176 632.881C128.416 633.108 127.542 633.221 126.556 633.221H123.696ZM138.565 640.281C137.312 640.281 136.338 639.868 135.645 639.041C134.965 638.215 134.625 636.988 134.625 635.361V629.061H137.405V635.601C137.405 636.268 137.592 636.801 137.965 637.201C138.338 637.588 138.845 637.781 139.485 637.781C140.125 637.781 140.645 637.575 141.045 637.161C141.458 636.748 141.665 636.188 141.665 635.481V629.061H144.445V639.941H142.245V635.321H142.465C142.465 636.415 142.325 637.328 142.045 638.061C141.765 638.795 141.345 639.348 140.785 639.721C140.225 640.095 139.525 640.281 138.685 640.281H138.565ZM147.319 644.221V641.841H149.359C149.745 641.841 150.065 641.788 150.319 641.681C150.585 641.588 150.805 641.428 150.979 641.201C151.152 640.988 151.285 640.688 151.379 640.301L154.299 629.081H156.959L153.739 640.901C153.525 641.715 153.225 642.361 152.839 642.841C152.452 643.335 151.952 643.688 151.339 643.901C150.739 644.115 149.992 644.221 149.099 644.221H147.319ZM150.699 639.701V637.501H153.019V639.701H150.699ZM149.759 639.701L146.239 629.081H149.039L152.379 639.701H149.759ZM163.405 639.941V625.341H168.065L174.205 637.581H174.865L174.465 637.941V625.341H177.145V639.941H172.465L166.325 627.701H165.645L166.045 627.341V639.941H163.405ZM180.749 639.941V625.341H183.589V639.941H180.749ZM183.189 633.861V631.461L189.029 631.441V633.841L183.189 633.861ZM183.189 627.741V625.341H189.309V627.741H183.189ZM194.996 639.941V627.441H197.836V639.941H194.996ZM190.776 627.841V625.341H202.056V627.841H190.776ZM207.028 640.281C205.534 640.281 204.361 639.968 203.508 639.341C202.668 638.701 202.228 637.821 202.188 636.701H204.688C204.728 637.075 204.934 637.415 205.308 637.721C205.681 638.028 206.268 638.181 207.068 638.181C207.734 638.181 208.261 638.061 208.648 637.821C209.048 637.581 209.248 637.255 209.248 636.841C209.248 636.481 209.094 636.195 208.788 635.981C208.494 635.768 207.988 635.628 207.268 635.561L206.308 635.461C205.094 635.328 204.161 634.981 203.508 634.421C202.854 633.861 202.528 633.115 202.528 632.181C202.528 631.435 202.714 630.808 203.088 630.301C203.461 629.795 203.974 629.415 204.628 629.161C205.294 628.895 206.054 628.761 206.908 628.761C208.241 628.761 209.321 629.055 210.148 629.641C210.974 630.228 211.408 631.088 211.448 632.221H208.948C208.921 631.848 208.734 631.528 208.388 631.261C208.041 630.995 207.541 630.861 206.888 630.861C206.301 630.861 205.848 630.975 205.528 631.201C205.208 631.428 205.048 631.721 205.048 632.081C205.048 632.428 205.174 632.695 205.428 632.881C205.694 633.068 206.121 633.195 206.708 633.261L207.668 633.361C208.948 633.495 209.948 633.848 210.668 634.421C211.401 634.995 211.768 635.768 211.768 636.741C211.768 637.461 211.568 638.088 211.168 638.621C210.781 639.141 210.234 639.548 209.528 639.841C208.821 640.135 207.988 640.281 207.028 640.281Z" fill="#222425"/>
<rect x="88.5" y="652.941" width="6" height="152" fill="#969A9C"/>
<defs>
<clipPath id="clip0_116_404">
<rect x="71.5" y="0.941406" width="40" height="40" fill="white"/>
</clipPath>
<clipPath id="clip1_116_404">
<rect x="71.5" y="204.941" width="40" height="40" fill="white"/>
</clipPath>
<clipPath id="clip2_116_404">
<rect x="71.5" y="380.941" width="40" height="40" fill="white"/>
</clipPath>
<clipPath id="clip3_116_404">
<rect x="71.5" y="612.941" width="40" height="40" fill="white"/>
</clipPath>
</defs>
</svg>
