<svg width="20" height="21" viewBox="0 0 20 21" fill="none" xmlns="http://www.w3.org/2000/svg">
<g id="Group">
<path id="Vector" d="M18.5195 0.334717H1.47656C0.660156 0.334717 0 0.979248 0 1.77612V18.8894C0 19.6863 0.660156 20.3347 1.47656 20.3347H18.5195C19.3359 20.3347 20 19.6863 20 18.8933V1.77612C20 0.979248 19.3359 0.334717 18.5195 0.334717ZM5.93359 17.3777H2.96484V7.83081H5.93359V17.3777ZM4.44922 6.53003C3.49609 6.53003 2.72656 5.7605 2.72656 4.81128C2.72656 3.86206 3.49609 3.09253 4.44922 3.09253C5.39844 3.09253 6.16797 3.86206 6.16797 4.81128C6.16797 5.75659 5.39844 6.53003 4.44922 6.53003ZM17.043 17.3777H14.0781V12.7371C14.0781 11.6316 14.0586 10.2058 12.5352 10.2058C10.9922 10.2058 10.7578 11.4128 10.7578 12.6589V17.3777H7.79688V7.83081H10.6406V9.1355H10.6797C11.0742 8.3855 12.043 7.59253 13.4844 7.59253C16.4883 7.59253 17.043 9.56909 17.043 12.1394V17.3777Z" fill="#98A2B3"/>
</g>
</svg>
