<svg width="24" height="25" viewBox="0 0 24 25" fill="none" xmlns="http://www.w3.org/2000/svg">
<g clip-path="url(#clip0_67_284)">
<path d="M15 8.5H15.01" stroke="#222425" stroke-width="2" stroke-linecap="round" stroke-linejoin="round"/>
<path d="M6 13.4998L8.644 10.8558C8.75637 10.7433 8.88981 10.6541 9.03669 10.5932C9.18357 10.5323 9.34101 10.501 9.5 10.501C9.65899 10.501 9.81643 10.5323 9.96331 10.5932C10.1102 10.6541 10.2436 10.7433 10.356 10.8558L14 14.4998" stroke="#222425" stroke-width="2" stroke-linecap="round" stroke-linejoin="round"/>
<path d="M13 13.4998L14.644 11.8558C14.7564 11.7433 14.8898 11.6541 15.0367 11.5932C15.1836 11.5323 15.341 11.501 15.5 11.501C15.659 11.501 15.8164 11.5323 15.9633 11.5932C16.1102 11.6541 16.2436 11.7433 16.356 11.8558L18 13.4998" stroke="#222425" stroke-width="2" stroke-linecap="round" stroke-linejoin="round"/>
<path d="M4 8.5V6.5C4 5.96957 4.21071 5.46086 4.58579 5.08579C4.96086 4.71071 5.46957 4.5 6 4.5H8" stroke="#222425" stroke-width="2" stroke-linecap="round" stroke-linejoin="round"/>
<path d="M4 16.5V18.5C4 19.0304 4.21071 19.5391 4.58579 19.9142C4.96086 20.2893 5.46957 20.5 6 20.5H8" stroke="#222425" stroke-width="2" stroke-linecap="round" stroke-linejoin="round"/>
<path d="M16 4.5H18C18.5304 4.5 19.0391 4.71071 19.4142 5.08579C19.7893 5.46086 20 5.96957 20 6.5V8.5" stroke="#222425" stroke-width="2" stroke-linecap="round" stroke-linejoin="round"/>
<path d="M16 20.5H18C18.5304 20.5 19.0391 20.2893 19.4142 19.9142C19.7893 19.5391 20 19.0304 20 18.5V16.5" stroke="#222425" stroke-width="2" stroke-linecap="round" stroke-linejoin="round"/>
</g>
<defs>
<clipPath id="clip0_67_284">
<rect width="24" height="24" fill="white" transform="translate(0 0.5)"/>
</clipPath>
</defs>
</svg>
