<svg width="40" height="40" viewBox="0 0 40 40" fill="none" xmlns="http://www.w3.org/2000/svg">
<g id="8">
<g id="Vector 8">
<path d="M24.1908 13.4694L31.1764 20.4549L24.0643 20.4364C26.6611 20.4433 27.9765 17.3131 26.1543 15.463L24.1908 13.4694Z" fill="black"/>
<path d="M31.1764 20.4549L26.5193 25.112L24.1908 27.4405L26.1507 25.4663C27.9967 23.6069 26.6844 20.4433 24.0643 20.4364L31.1764 20.4549Z" fill="black"/>
<path d="M10.8462 20.4549L24.0643 20.4364M31.1764 20.4549L26.5193 25.112L24.1908 27.4405M31.1764 20.4549L24.1908 13.4694M31.1764 20.4549L24.0643 20.4364M21.8623 29.769L24.1908 27.4405M21.8623 11.1408L24.1908 13.4694M24.1908 27.4405L26.1507 25.4663C27.9967 23.6069 26.6844 20.4433 24.0643 20.4364V20.4364M24.1908 13.4694L26.1543 15.463C27.9765 17.3131 26.6611 20.4433 24.0643 20.4364V20.4364" stroke="black" stroke-width="2" stroke-linecap="round" stroke-linejoin="round"/>
</g>
</g>
</svg>
