<svg width="40" height="40" viewBox="0 0 40 40" fill="none" xmlns="http://www.w3.org/2000/svg">
<g id="8">
<g id="Vector 8">
<path d="M15.107 13.4694L8.12148 20.4549L15.2335 20.4364C12.6367 20.4433 11.3213 17.3131 13.1435 15.463L15.107 13.4694Z" fill="black"/>
<path d="M8.12148 20.4549L12.7785 25.112L15.107 27.4405L13.1471 25.4663C11.3012 23.6069 12.6134 20.4433 15.2335 20.4364L8.12148 20.4549Z" fill="black"/>
<path d="M28.4517 20.4549L15.2335 20.4364M8.12148 20.4549L12.7785 25.112L15.107 27.4405M8.12148 20.4549L15.107 13.4694M8.12148 20.4549L15.2335 20.4364M17.4356 29.769L15.107 27.4405M17.4356 11.1408L15.107 13.4694M15.107 27.4405L13.1471 25.4663C11.3012 23.6069 12.6134 20.4433 15.2335 20.4364V20.4364M15.107 13.4694L13.1435 15.463C11.3213 17.3131 12.6367 20.4433 15.2335 20.4364V20.4364" stroke="black" stroke-width="2" stroke-linecap="round" stroke-linejoin="round"/>
</g>
</g>
</svg>
