<svg width="18" height="18" viewBox="0 0 18 18" fill="none" xmlns="http://www.w3.org/2000/svg">
<g id="telegram" clip-path="url(#clip0_76_1296)">
<g id="Group">
<path id="Vector" d="M17.3384 2.0127C17.3247 1.94944 17.2943 1.89096 17.2506 1.84325C17.2068 1.79553 17.1512 1.76028 17.0893 1.7411C16.8642 1.6967 16.6314 1.71335 16.4149 1.78931C16.4149 1.78931 1.39504 7.1877 0.53736 7.78556C0.352003 7.91413 0.290396 7.9886 0.25986 8.07699C0.111467 8.50235 0.573253 8.68985 0.573253 8.68985L4.44432 9.95145C4.50971 9.96276 4.57683 9.95872 4.6404 9.93967C5.52111 9.3836 13.5006 4.34467 13.9618 4.17538C14.0341 4.15342 14.0877 4.17538 14.0759 4.22895C13.8874 4.87502 6.99647 10.9988 6.95843 11.0363C6.93994 11.0514 6.92541 11.0709 6.91608 11.0929C6.90675 11.1149 6.9029 11.1389 6.90486 11.1627L6.54486 14.94C6.54486 14.94 6.39379 16.1186 7.57022 14.94C8.40433 14.1048 9.20468 13.4138 9.60593 13.0779C10.9372 13.9966 12.3697 15.0129 12.9874 15.5422C13.091 15.6428 13.2139 15.7216 13.3486 15.7737C13.4834 15.8258 13.6273 15.8502 13.7716 15.8454C14.3609 15.8229 14.5216 15.1784 14.5216 15.1784C14.5216 15.1784 17.2581 4.16681 17.3502 2.69092C17.3588 2.54627 17.3711 2.4536 17.3722 2.35449C17.3771 2.23954 17.3657 2.12448 17.3384 2.0127Z" fill="#757185"/>
</g>
</g>
<defs>
<clipPath id="clip0_76_1296">
<rect width="17.1429" height="17.1429" fill="white" transform="translate(0.230469 0.207886)"/>
</clipPath>
</defs>
</svg>
