<svg width="18" height="18" viewBox="0 0 18 18" fill="none" xmlns="http://www.w3.org/2000/svg">
<g id="twitter" clip-path="url(#clip0_76_1282)">
<g id="Group">
<path id="Vector" d="M17.3732 3.47602C16.7303 3.74388 16.0875 3.95816 15.3375 4.01174C16.0875 3.58316 16.6232 2.88674 16.891 2.08316C16.1946 2.51174 15.4446 2.77959 14.641 2.94031C13.9982 2.24388 13.0875 1.81531 12.1232 1.81531C10.1946 1.81531 8.58747 3.36888 8.58747 5.35102C8.58747 5.61888 8.64104 5.88674 8.69462 6.15459C5.74819 5.99388 3.17676 4.60102 1.4089 2.45816C1.08747 2.99388 0.926758 3.58316 0.926758 4.22602C0.926758 5.45816 1.56961 6.52959 2.48033 7.17245C1.89104 7.17245 1.35533 7.01174 0.873186 6.74388V6.79745C0.873186 8.51174 2.10533 9.90459 3.71247 10.226C3.39104 10.2796 3.12319 10.3332 2.80176 10.3332C2.58747 10.3332 2.37319 10.3332 2.1589 10.2796C2.58747 11.6725 3.92676 12.6903 5.42676 12.7439C4.24819 13.7082 2.69462 14.2439 1.0339 14.2439C0.766044 14.2439 0.444615 14.2439 0.176758 14.1903C1.7839 15.1546 3.6589 15.7439 5.64104 15.7439C12.1232 15.7439 15.6589 10.3867 15.6589 5.72602C15.6589 5.56531 15.6589 5.40459 15.6589 5.29745C16.3018 4.76174 16.891 4.17245 17.3732 3.47602Z" fill="#757185"/>
</g>
</g>
<defs>
<clipPath id="clip0_76_1282">
<rect width="17.1429" height="17.1429" fill="white" transform="translate(0.230469 0.207886)"/>
</clipPath>
</defs>
</svg>
