<svg width="24" height="24" viewBox="0 0 24 24" fill="none" xmlns="http://www.w3.org/2000/svg">
<path d="M21.7477 7.73C21.7611 7.93614 21.7611 8.14227 21.7611 8.35031C21.7611 14.6893 17.2208 22 8.91863 22V21.9962C6.46614 22 4.06459 21.2533 2 19.8455C2.35661 19.8911 2.71501 19.9139 3.0743 19.9149C5.10672 19.9168 7.08105 19.192 8.67999 17.8573C6.74857 17.8184 5.05489 16.4799 4.46321 14.5259C5.13979 14.6646 5.83693 14.6361 6.501 14.4432C4.39529 13.9911 2.88036 12.0247 2.88036 9.74102V9.68023C3.50778 10.0517 4.21028 10.2578 4.92886 10.2806C2.9456 8.87183 2.33427 6.06761 3.53191 3.87514C5.82352 6.87221 9.20463 8.69419 12.8342 8.88703C12.4704 7.22083 12.9674 5.47484 14.14 4.30357C15.9579 2.48728 18.8171 2.58038 20.5259 4.5116C21.5368 4.29977 22.5056 3.90554 23.3922 3.34698C23.0553 4.45746 22.3501 5.40075 21.4081 6.00016C22.3027 5.88807 23.1768 5.63348 24 5.24496C23.394 6.2101 22.6308 7.05079 21.7477 7.73Z" fill="#222425"/>
</svg>
