<svg width="166" height="41" viewBox="0 0 166 41" fill="none" xmlns="http://www.w3.org/2000/svg">
<rect y="0.0292969" width="166" height="40" rx="4" fill="white" fill-opacity="0.5"/>
<g filter="url(#filter0_b_4_6279)">
<rect x="4" y="4.0293" width="158" height="32" rx="4" fill="#625DF5"/>
<rect x="5" y="5.0293" width="156" height="30" rx="3" stroke="#EFF2F4" stroke-width="2"/>
<path d="M40.5171 25.0293L36.7891 13.3493L39.1411 13.3493L42.2291 23.4613L41.5571 23.1413L43.2851 23.1413L42.5971 23.4613L45.4451 13.3493L47.7171 13.3493L44.2611 25.0293L40.5171 25.0293ZM49.5394 25.0293L49.5394 16.3413L51.7634 16.3413L51.7634 25.0293L49.5394 25.0293ZM48.3234 18.0053L48.3234 16.3413L51.7634 16.3413L51.7634 18.0053L48.3234 18.0053ZM50.3554 15.3013C49.918 15.3013 49.5927 15.1893 49.3794 14.9653C49.1767 14.7306 49.0754 14.4426 49.0754 14.1013C49.0754 13.7386 49.1767 13.4453 49.3794 13.2213C49.5927 12.9973 49.918 12.8853 50.3554 12.8853C50.7927 12.8853 51.1127 12.9973 51.3154 13.2213C51.518 13.4453 51.6194 13.7386 51.6194 14.1013C51.6194 14.4426 51.518 14.7306 51.3154 14.9653C51.1127 15.1893 50.7927 15.3013 50.3554 15.3013ZM58.2145 25.3333C57.4678 25.3333 56.8118 25.2053 56.2465 24.9493C55.6918 24.6933 55.2278 24.352 54.8545 23.9253C54.4918 23.488 54.2145 23.0026 54.0225 22.4693C53.8412 21.936 53.7505 21.392 53.7505 20.8373L53.7505 20.5333C53.7505 19.9573 53.8412 19.4026 54.0225 18.8693C54.2145 18.3253 54.4918 17.8453 54.8545 17.4293C55.2278 17.0026 55.6865 16.6666 56.2305 16.4213C56.7745 16.1653 57.4038 16.0373 58.1185 16.0373C59.0572 16.0373 59.8412 16.2453 60.4705 16.6613C61.1105 17.0666 61.5905 17.6053 61.9105 18.2773C62.2305 18.9386 62.3905 19.6533 62.3905 20.4213L62.3905 21.2213L54.6945 21.2213L54.6945 19.8613L60.9985 19.8613L60.3105 20.5333C60.3105 19.9786 60.2305 19.504 60.0705 19.1093C59.9105 18.7146 59.6652 18.4106 59.3345 18.1973C59.0145 17.984 58.6092 17.8773 58.1185 17.8773C57.6278 17.8773 57.2118 17.9893 56.8705 18.2133C56.5292 18.4373 56.2678 18.7626 56.0865 19.1893C55.9158 19.6053 55.8305 20.1066 55.8305 20.6933C55.8305 21.2373 55.9158 21.7226 56.0865 22.1493C56.2572 22.5653 56.5185 22.896 56.8705 23.1413C57.2225 23.376 57.6705 23.4933 58.2145 23.4933C58.7585 23.4933 59.2012 23.3866 59.5425 23.1733C59.8838 22.9493 60.1025 22.6773 60.1985 22.3573L62.2465 22.3573C62.1185 22.9546 61.8732 23.4773 61.5105 23.9253C61.1478 24.3733 60.6838 24.72 60.1185 24.9653C59.5638 25.2106 58.9292 25.3333 58.2145 25.3333ZM67.1463 25.0293L68.7943 16.6293L71.3542 16.6293L73.2583 25.0293L71.4982 25.0293L69.5623 16.6773L70.4903 16.6773L68.7783 25.0293L67.1463 25.0293ZM66.4903 25.0293L66.4743 23.2053L68.2503 23.2053L68.2503 25.0293L66.4903 25.0293ZM65.5943 25.0293L63.2263 16.3413L65.3863 16.3413L67.6423 25.0293L65.5943 25.0293ZM72.0583 25.0293L72.0583 23.2053L73.8343 23.2053L73.8183 25.0293L72.0583 25.0293ZM72.7623 25.0293L74.7623 16.3413L76.7783 16.3413L74.6823 25.0293L72.7623 25.0293ZM84.1108 25.0933L84.1108 22.9813L86.5268 22.9813C87.1348 22.9813 87.6734 22.8906 88.1428 22.7093C88.6228 22.5173 89.0281 22.2506 89.3588 21.9093C89.6894 21.568 89.9401 21.168 90.1108 20.7093C90.2921 20.24 90.3828 19.7226 90.3828 19.1573C90.3828 18.5706 90.2921 18.048 90.1108 17.5893C89.9401 17.12 89.6894 16.72 89.3588 16.3893C89.0281 16.0586 88.6228 15.808 88.1428 15.6373C87.6734 15.4666 87.1348 15.3813 86.5268 15.3813L84.1108 15.3813L84.1108 13.2693L86.3828 13.2693C87.4388 13.2693 88.3614 13.424 89.1508 13.7333C89.9401 14.0426 90.5961 14.4693 91.1188 15.0133C91.6414 15.5466 92.0308 16.16 92.2868 16.8533C92.5534 17.536 92.6868 18.2453 92.6868 18.9813L92.6868 19.3333C92.6868 20.0373 92.5534 20.7306 92.2868 21.4133C92.0308 22.096 91.6414 22.7146 91.1188 23.2693C90.5961 23.824 89.9401 24.2666 89.1508 24.5973C88.3614 24.928 87.4388 25.0933 86.3828 25.0933L84.1108 25.0933ZM82.1588 25.0933L82.1588 13.2693L84.4308 13.2693L84.4308 25.0933L82.1588 25.0933ZM98.4333 25.3333C97.6866 25.3333 97.0306 25.2053 96.4653 24.9493C95.9106 24.6933 95.4466 24.352 95.0733 23.9253C94.7106 23.488 94.4333 23.0026 94.2413 22.4693C94.0599 21.936 93.9693 21.392 93.9693 20.8373L93.9693 20.5333C93.9693 19.9573 94.0599 19.4026 94.2413 18.8693C94.4333 18.3253 94.7106 17.8453 95.0733 17.4293C95.4466 17.0026 95.9053 16.6666 96.4493 16.4213C96.9933 16.1653 97.6226 16.0373 98.3373 16.0373C99.2759 16.0373 100.06 16.2453 100.689 16.6613C101.329 17.0666 101.809 17.6053 102.129 18.2773C102.449 18.9386 102.609 19.6533 102.609 20.4213L102.609 21.2213L94.9133 21.2213L94.9133 19.8613L101.217 19.8613L100.529 20.5333C100.529 19.9786 100.449 19.504 100.289 19.1093C100.129 18.7146 99.8839 18.4106 99.5533 18.1973C99.2333 17.984 98.8279 17.8773 98.3373 17.8773C97.8466 17.8773 97.4306 17.9893 97.0893 18.2133C96.7479 18.4373 96.4866 18.7626 96.3053 19.1893C96.1346 19.6053 96.0493 20.1066 96.0493 20.6933C96.0493 21.2373 96.1346 21.7226 96.3053 22.1493C96.4759 22.5653 96.7373 22.896 97.0893 23.1413C97.4413 23.376 97.8893 23.4933 98.4333 23.4933C98.9773 23.4933 99.4199 23.3866 99.7613 23.1733C100.103 22.9493 100.321 22.6773 100.417 22.3573L102.465 22.3573C102.337 22.9546 102.092 23.4773 101.729 23.9253C101.367 24.3733 100.903 24.72 100.337 24.9653C99.7826 25.2106 99.1479 25.3333 98.4333 25.3333ZM108.243 25.1413C107.443 25.1413 106.782 25.04 106.259 24.8373C105.747 24.624 105.363 24.272 105.107 23.7813C104.851 23.28 104.723 22.608 104.723 21.7653L104.739 13.8933L106.819 13.8933L106.803 21.9093C106.803 22.336 106.915 22.6666 107.139 22.9013C107.374 23.1253 107.704 23.2373 108.131 23.2373L109.491 23.2373L109.491 25.1413L108.243 25.1413ZM103.347 17.9733L103.347 16.3413L109.491 16.3413L109.491 17.9733L103.347 17.9733ZM116.591 25.0293L116.591 22.4533L116.223 22.4533L116.223 19.5893C116.223 19.088 116.1 18.7146 115.855 18.4693C115.609 18.224 115.231 18.1013 114.719 18.1013C114.452 18.1013 114.132 18.1066 113.759 18.1173C113.385 18.128 113.007 18.144 112.623 18.1653C112.249 18.176 111.913 18.192 111.615 18.2133L111.615 16.3253C111.86 16.304 112.137 16.2826 112.447 16.2613C112.756 16.24 113.071 16.2293 113.391 16.2293C113.721 16.2186 114.031 16.2133 114.319 16.2133C115.215 16.2133 115.956 16.3306 116.543 16.5653C117.14 16.8 117.588 17.168 117.887 17.6693C118.196 18.1706 118.351 18.8266 118.351 19.6373L118.351 25.0293L116.591 25.0293ZM113.791 25.2533C113.161 25.2533 112.607 25.1413 112.127 24.9173C111.657 24.6933 111.289 24.3733 111.023 23.9573C110.767 23.5413 110.639 23.04 110.639 22.4533C110.639 21.8133 110.793 21.2906 111.103 20.8853C111.423 20.48 111.865 20.176 112.431 19.9733C113.007 19.7706 113.679 19.6693 114.447 19.6693L116.463 19.6693L116.463 20.9973L114.415 20.9973C113.903 20.9973 113.508 21.1253 113.231 21.3813C112.964 21.6266 112.831 21.9466 112.831 22.3413C112.831 22.736 112.964 23.056 113.231 23.3013C113.508 23.5466 113.903 23.6693 114.415 23.6693C114.724 23.6693 115.007 23.616 115.263 23.5093C115.529 23.392 115.748 23.2 115.919 22.9333C116.1 22.656 116.201 22.2826 116.223 21.8133L116.767 22.4373C116.713 23.0453 116.564 23.5573 116.319 23.9733C116.084 24.3893 115.753 24.7093 115.327 24.9333C114.911 25.1466 114.399 25.2533 113.791 25.2533ZM121.149 25.0293L121.149 16.3413L123.373 16.3413L123.373 25.0293L121.149 25.0293ZM119.933 18.0053L119.933 16.3413L123.373 16.3413L123.373 18.0053L119.933 18.0053ZM121.965 15.3013C121.527 15.3013 121.202 15.1893 120.989 14.9653C120.786 14.7306 120.685 14.4426 120.685 14.1013C120.685 13.7386 120.786 13.4453 120.989 13.2213C121.202 12.9973 121.527 12.8853 121.965 12.8853C122.402 12.8853 122.722 12.9973 122.925 13.2213C123.127 13.4453 123.229 13.7386 123.229 14.1013C123.229 14.4426 123.127 14.7306 122.925 14.9653C122.722 15.1893 122.402 15.3013 121.965 15.3013ZM126.048 25.0293L126.048 13.3493L128.272 13.3493L128.272 25.0293L126.048 25.0293ZM124.96 15.0133L124.96 13.3493L128.272 13.3493L128.272 15.0133L124.96 15.0133Z" fill="#EFF2F4"/>
</g>
<defs>
<filter id="filter0_b_4_6279" x="-58.4" y="-58.3707" width="282.8" height="156.8" filterUnits="userSpaceOnUse" color-interpolation-filters="sRGB">
<feFlood flood-opacity="0" result="BackgroundImageFix"/>
<feGaussianBlur in="BackgroundImageFix" stdDeviation="31.2"/>
<feComposite in2="SourceAlpha" operator="in" result="effect1_backgroundBlur_4_6279"/>
<feBlend mode="normal" in="SourceGraphic" in2="effect1_backgroundBlur_4_6279" result="shape"/>
</filter>
</defs>
</svg>
